<?xml version="1.0" encoding="UTF-8"?>
<svg xmlns="http://www.w3.org/2000/svg" xmlns:xlink="http://www.w3.org/1999/xlink" width="30px" height="30px" viewBox="0 0 30 30" version="1.1">
<g id="surface1">
<path style=" stroke:none;fill-rule:nonzero;fill:rgb(56.470588%,56.470588%,58.823529%);fill-opacity:1;" d="M 15 0.3125 C 6.714844 0.3125 0 7.054688 0 15.371094 C 0 22.023438 4.296875 27.667969 10.261719 29.660156 C 11.011719 29.800781 11.285156 29.335938 11.285156 28.9375 C 11.285156 28.578125 11.269531 27.632812 11.261719 26.375 C 7.089844 27.285156 6.210938 24.355469 6.210938 24.355469 C 5.53125 22.617188 4.546875 22.152344 4.546875 22.152344 C 3.183594 21.21875 4.644531 21.238281 4.644531 21.238281 C 6.152344 21.34375 6.941406 22.789062 6.941406 22.789062 C 8.28125 25.089844 10.453125 24.425781 11.308594 24.039062 C 11.445312 23.066406 11.832031 22.402344 12.261719 22.027344 C 8.933594 21.644531 5.429688 20.355469 5.429688 14.585938 C 5.429688 12.941406 6.015625 11.597656 6.976562 10.542969 C 6.820312 10.160156 6.304688 8.628906 7.121094 6.558594 C 7.121094 6.558594 8.382812 6.152344 11.246094 8.101562 C 12.441406 7.765625 13.726562 7.601562 15 7.59375 C 16.273438 7.601562 17.558594 7.765625 18.757812 8.101562 C 21.621094 6.15625 22.878906 6.558594 22.878906 6.558594 C 23.695312 8.632812 23.183594 10.164062 23.027344 10.542969 C 23.992188 11.597656 24.570312 12.941406 24.570312 14.585938 C 24.570312 20.371094 21.0625 21.644531 17.722656 22.015625 C 18.261719 22.480469 18.742188 23.402344 18.742188 24.804688 C 18.742188 26.820312 18.722656 28.441406 18.722656 28.9375 C 18.722656 29.339844 18.992188 29.808594 19.753906 29.660156 C 25.707031 27.664062 30 22.023438 30 15.371094 C 30 7.054688 23.285156 0.3125 15 0.3125 Z M 15 0.3125 "/>
</g>
</svg>
