<?xml version="1.0" encoding="UTF-8"?>
<svg xmlns="http://www.w3.org/2000/svg" xmlns:xlink="http://www.w3.org/1999/xlink" width="60px" height="60px" viewBox="0 0 60 60" version="1.1">
<defs>
<linearGradient id="linear0" gradientUnits="userSpaceOnUse" x1="76" y1="256" x2="436" y2="256" gradientTransform="matrix(0.117188,0,0,0.117188,0,0)">
<stop offset="0" style="stop-color:rgb(50.196078%,84.705882%,100%);stop-opacity:1;"/>
<stop offset="1" style="stop-color:rgb(91.764706%,50.196078%,98.823529%);stop-opacity:1;"/>
</linearGradient>
</defs>
<g id="surface1">
<path style=" stroke:none;fill-rule:nonzero;fill:url(#linear0);" d="M 48.75 55.3125 L 13.59375 55.3125 L 13.59375 32.34375 L 41.601562 32.34375 C 42.894531 32.34375 43.945312 31.292969 43.945312 30 C 43.945312 28.707031 42.894531 27.65625 41.601562 27.65625 L 13.59375 27.65625 L 13.59375 4.6875 L 48.75 4.6875 C 50.042969 4.6875 51.09375 3.636719 51.09375 2.34375 C 51.09375 1.050781 50.042969 0 48.75 0 L 11.25 0 C 9.957031 0 8.90625 1.050781 8.90625 2.34375 L 8.90625 57.65625 C 8.90625 58.949219 9.957031 60 11.25 60 L 48.75 60 C 50.042969 60 51.09375 58.949219 51.09375 57.65625 C 51.09375 56.363281 50.042969 55.3125 48.75 55.3125 Z M 48.75 55.3125 "/>
</g>
</svg>
