<?xml version="1.0" encoding="UTF-8"?>
<svg xmlns="http://www.w3.org/2000/svg" xmlns:xlink="http://www.w3.org/1999/xlink" width="30px" height="30px" viewBox="0 0 30 30" version="1.1">
<g id="surface1">
<path style=" stroke:none;fill-rule:nonzero;fill:rgb(0%,0%,0%);fill-opacity:1;" d="M 29.269531 17.085938 C 28.964844 17.007812 28.65625 17.085938 28.386719 17.277344 C 27.390625 18.121094 26.238281 18.8125 24.972656 19.273438 C 23.785156 19.734375 22.480469 19.964844 21.097656 19.964844 C 17.992188 19.964844 15.152344 18.699219 13.121094 16.664062 C 11.085938 14.632812 9.820312 11.792969 9.820312 8.683594 C 9.820312 7.378906 10.050781 6.113281 10.433594 4.964844 C 10.855469 3.738281 11.46875 2.625 12.277344 1.664062 C 12.621094 1.242188 12.542969 0.628906 12.121094 0.285156 C 11.855469 0.09375 11.546875 0.015625 11.238281 0.09375 C 7.980469 0.972656 5.140625 2.929688 3.105469 5.539062 C 1.152344 8.109375 0 11.292969 0 14.746094 C 0 18.925781 1.6875 22.726562 4.449219 25.488281 C 7.210938 28.25 10.972656 29.9375 15.191406 29.9375 C 18.71875 29.9375 21.980469 28.710938 24.589844 26.675781 C 27.238281 24.605469 29.15625 21.652344 29.960938 18.277344 C 30.113281 17.738281 29.808594 17.203125 29.269531 17.085938 Z M 29.269531 17.085938 "/>
</g>
</svg>
