<?xml version="1.0" encoding="UTF-8"?>
<svg xmlns="http://www.w3.org/2000/svg" xmlns:xlink="http://www.w3.org/1999/xlink" width="30px" height="30px" viewBox="0 0 30 30" version="1.1">
<g id="surface1">
<path style=" stroke:none;fill-rule:nonzero;fill:rgb(100%,100%,100%);fill-opacity:1;" d="M 15 7.484375 C 10.855469 7.484375 7.484375 10.855469 7.484375 15 C 7.484375 19.144531 10.855469 22.515625 15 22.515625 C 19.144531 22.515625 22.515625 19.144531 22.515625 15 C 22.515625 10.855469 19.144531 7.484375 15 7.484375 Z M 15 7.484375 "/>
<path style=" stroke:none;fill-rule:nonzero;fill:rgb(100%,100%,100%);fill-opacity:1;" d="M 15 5.277344 C 14.191406 5.277344 13.535156 4.621094 13.535156 3.8125 L 13.535156 1.464844 C 13.535156 0.65625 14.191406 0 15 0 C 15.808594 0 16.464844 0.65625 16.464844 1.464844 L 16.464844 3.8125 C 16.464844 4.621094 15.808594 5.277344 15 5.277344 Z M 15 5.277344 "/>
<path style=" stroke:none;fill-rule:nonzero;fill:rgb(100%,100%,100%);fill-opacity:1;" d="M 15 24.722656 C 14.191406 24.722656 13.535156 25.378906 13.535156 26.1875 L 13.535156 28.535156 C 13.535156 29.34375 14.191406 30 15 30 C 15.808594 30 16.464844 29.34375 16.464844 28.535156 L 16.464844 26.1875 C 16.464844 25.378906 15.808594 24.722656 15 24.722656 Z M 15 24.722656 "/>
<path style=" stroke:none;fill-rule:nonzero;fill:rgb(100%,100%,100%);fill-opacity:1;" d="M 21.875 8.125 C 21.300781 7.550781 21.300781 6.625 21.875 6.050781 L 23.53125 4.394531 C 24.105469 3.820312 25.035156 3.820312 25.605469 4.394531 C 26.179688 4.964844 26.179688 5.894531 25.605469 6.464844 L 23.949219 8.125 C 23.375 8.699219 22.449219 8.699219 21.875 8.125 Z M 21.875 8.125 "/>
<path style=" stroke:none;fill-rule:nonzero;fill:rgb(100%,100%,100%);fill-opacity:1;" d="M 8.125 21.875 C 7.550781 21.300781 6.625 21.300781 6.050781 21.875 L 4.394531 23.535156 C 3.820312 24.105469 3.820312 25.035156 4.394531 25.605469 C 4.964844 26.179688 5.894531 26.179688 6.464844 25.605469 L 8.125 23.949219 C 8.699219 23.375 8.699219 22.445312 8.125 21.875 Z M 8.125 21.875 "/>
<path style=" stroke:none;fill-rule:nonzero;fill:rgb(100%,100%,100%);fill-opacity:1;" d="M 24.722656 15 C 24.722656 14.191406 25.378906 13.535156 26.1875 13.535156 L 28.535156 13.535156 C 29.34375 13.535156 30 14.191406 30 15 C 30 15.808594 29.34375 16.464844 28.535156 16.464844 L 26.1875 16.464844 C 25.378906 16.464844 24.722656 15.808594 24.722656 15 Z M 24.722656 15 "/>
<path style=" stroke:none;fill-rule:nonzero;fill:rgb(100%,100%,100%);fill-opacity:1;" d="M 5.277344 15 C 5.277344 14.191406 4.621094 13.535156 3.8125 13.535156 L 1.464844 13.535156 C 0.65625 13.535156 0 14.191406 0 15 C 0 15.808594 0.65625 16.464844 1.464844 16.464844 L 3.8125 16.464844 C 4.621094 16.464844 5.277344 15.808594 5.277344 15 Z M 5.277344 15 "/>
<path style=" stroke:none;fill-rule:nonzero;fill:rgb(100%,100%,100%);fill-opacity:1;" d="M 21.875 21.875 C 22.445312 21.304688 23.375 21.304688 23.949219 21.875 L 25.605469 23.535156 C 26.179688 24.105469 26.179688 25.035156 25.605469 25.605469 C 25.035156 26.179688 24.105469 26.179688 23.53125 25.605469 L 21.875 23.949219 C 21.300781 23.375 21.300781 22.449219 21.875 21.875 Z M 21.875 21.875 "/>
<path style=" stroke:none;fill-rule:nonzero;fill:rgb(100%,100%,100%);fill-opacity:1;" d="M 8.125 8.125 C 8.699219 7.550781 8.699219 6.625 8.125 6.050781 L 6.464844 4.394531 C 5.894531 3.820312 4.964844 3.820312 4.394531 4.394531 C 3.820312 4.964844 3.820312 5.894531 4.394531 6.464844 L 6.050781 8.125 C 6.625 8.699219 7.550781 8.699219 8.125 8.125 Z M 8.125 8.125 "/>
</g>
</svg>
