<?xml version="1.0" encoding="UTF-8"?>
<svg xmlns="http://www.w3.org/2000/svg" xmlns:xlink="http://www.w3.org/1999/xlink" width="30px" height="30px" viewBox="0 0 30 30" version="1.1">
<g id="surface1">
<path style=" stroke:none;fill-rule:nonzero;fill:rgb(56.470588%,56.470588%,58.823529%);fill-opacity:1;" d="M 15 0 C 6.714844 0 0 6.714844 0 15 C 0 23.285156 6.714844 30 15 30 C 23.285156 30 30 23.285156 30 15 C 30 6.714844 23.285156 0 15 0 Z M 23.800781 20.480469 L 21.214844 20.515625 C 21.214844 20.515625 20.660156 20.625 19.929688 20.121094 C 18.960938 19.457031 18.046875 17.730469 17.335938 17.949219 C 16.625 18.171875 16.636719 19.726562 16.636719 19.726562 C 16.640625 19.910156 16.585938 20.085938 16.476562 20.234375 C 16.328125 20.363281 16.144531 20.445312 15.949219 20.46875 L 14.800781 20.46875 C 14.800781 20.46875 12.238281 20.617188 9.996094 18.277344 C 7.535156 15.734375 5.363281 10.65625 5.363281 10.65625 C 5.363281 10.65625 5.238281 10.363281 5.375 10.164062 C 5.496094 9.992188 5.792969 9.972656 5.945312 9.96875 C 6.59375 9.9375 8.539062 9.949219 8.539062 9.949219 C 8.699219 9.945312 8.808594 9.953125 9.011719 10.042969 C 9.183594 10.128906 9.316406 10.253906 9.402344 10.460938 C 9.699219 11.207031 10.046875 11.929688 10.441406 12.632812 C 11.597656 14.632812 12.136719 15.066406 12.527344 14.855469 C 13.097656 14.542969 12.921875 12.03125 12.921875 12.03125 C 12.921875 12.03125 12.921875 11.117188 12.636719 10.710938 C 12.417969 10.457031 12.113281 10.296875 11.78125 10.261719 C 11.625 10.242188 11.882812 9.878906 12.214844 9.71875 C 12.710938 9.472656 13.589844 9.472656 14.628906 9.472656 C 15.085938 9.457031 15.542969 9.503906 15.988281 9.613281 C 16.941406 9.84375 16.617188 10.730469 16.617188 12.867188 C 16.617188 13.550781 16.496094 14.511719 16.988281 14.839844 C 17.199219 14.976562 17.71875 14.859375 19.015625 12.65625 C 19.429688 11.929688 19.789062 11.167969 20.09375 10.386719 C 20.148438 10.261719 20.238281 10.15625 20.347656 10.074219 C 20.464844 10.015625 20.597656 9.992188 20.726562 10.007812 L 23.640625 9.988281 C 23.640625 9.988281 24.511719 9.882812 24.65625 10.28125 C 24.796875 10.675781 24.328125 11.664062 23.136719 13.242188 C 21.183594 15.847656 20.964844 15.609375 22.589844 17.109375 C 24.136719 18.546875 24.460938 19.246094 24.511719 19.335938 C 25.15625 20.394531 23.800781 20.480469 23.800781 20.480469 Z M 23.800781 20.480469 "/>
</g>
</svg>
